<?xml version="1.0" encoding="UTF-8"?><svg id="Calque_2" xmlns="http://www.w3.org/2000/svg" viewBox="0 0 167.12 167.12"><g id="Calque_3"><path d="m167.12,48.97h-.05l.04-.04L118.19.01l-.04.04v-.05H48.97v.05l-.04-.04L.01,48.93l.04.04h-.05v69.18h.05l-.04.04,48.92,48.92.04-.04v.05h69.18v-.05l.04.04,48.92-48.92-.04-.04h.05V48.97Zm-36.51,78.91h-.03s.02.03.02.03l-41.87,38.83-.02-.04v.05s-44.82-9.95-44.82-9.95v-.05s-.02.03-.02.03l-21.5-52.9.03-.03h-.03s14.4-64.86,14.4-64.86h.03s-.02-.03-.02-.03L78.65.13l.02.04v-.05s44.82,9.95,44.82,9.95v.05s.02-.03.02-.03l21.5,52.9-.03.03h.03s-14.4,64.86-14.4,64.86Z"/></g></svg>