<?xml version="1.0" encoding="UTF-8"?><svg id="Calque_2" xmlns="http://www.w3.org/2000/svg" viewBox="0 0 493.28 493.74"><g id="Calque_3"><g><g><polygon points="394.62 0 424.04 246.87 394.62 493.74 430.48 493.74 430.48 0 394.62 0"/><polygon points="493.28 0 457.43 0 457.43 493.74 493.28 493.74 464.56 246.87 493.28 0"/></g><g><polygon points="295.96 0 325.38 246.87 295.96 493.74 331.82 493.74 331.82 0 295.96 0"/><polygon points="394.62 0 358.76 0 358.76 493.74 394.62 493.74 365.9 246.87 394.62 0"/></g><g><polygon points="197.3 0 226.71 246.87 197.3 493.74 233.16 493.74 233.16 0 197.3 0"/><polygon points="295.96 0 260.1 0 260.1 493.74 295.96 493.74 267.24 246.87 295.96 0"/></g><g><polygon points="98.64 0 128.05 246.87 98.64 493.74 134.5 493.74 134.5 0 98.64 0"/><polygon points="197.3 0 161.44 0 161.44 493.74 197.3 493.74 168.58 246.87 197.3 0"/></g><g><polygon points="0 0 29.41 246.87 0 493.74 35.86 493.74 35.86 0 0 0"/><polygon points="98.66 0 62.8 0 62.8 493.74 98.66 493.74 69.94 246.87 98.66 0"/></g></g></g></svg>