<?xml version="1.0" encoding="UTF-8"?><svg id="Calque_2" xmlns="http://www.w3.org/2000/svg" viewBox="0 0 109.62 54.81"><g id="Calque_3"><g><polyline points="54.8 27.41 27.4 27.41 27.4 0"/><polyline points="0 27.41 27.41 27.41 27.41 54.81"/><path d="m27.41,40c0-10.38,1.61-12.59,12.35-12.59l-12.37-12.36c0,10.38-2.06,12.36-12.81,12.36l12.82,12.59Z"/><polyline points="82.21 54.81 82.21 27.4 109.62 27.4"/><polyline points="82.21 0 82.21 27.41 54.8 27.41"/><path d="m69.62,27.41c10.38,0,12.59,1.61,12.59,12.35l12.36-12.37c-10.38,0-12.36-2.06-12.36-12.81l-12.59,12.82Z"/></g></g></svg>