<?xml version="1.0" encoding="UTF-8"?><svg id="Calque_2" xmlns="http://www.w3.org/2000/svg" viewBox="0 0 1478.63 1084.03"><g id="Calque_3"><g><polygon points="739.31 686.08 739.31 932.78 0 675.98 0 429.28 739.31 686.08"/><polygon points="739.31 246.7 739.31 0 0 256.81 0 503.51 739.31 246.7"/><polygon points="739.31 246.7 739.31 0 1478.63 256.81 1478.63 503.51 739.31 246.7"/><polygon points="739.31 686.08 739.31 932.78 1478.63 675.98 1478.63 429.28 739.31 686.08"/><circle cx="739.31" cy="469.99" r="139.47"/><path d="m1478.63,805.1c-77.03,0-139.47,62.44-139.47,139.47s62.44,139.47,139.47,139.47v-278.94Z"/><path d="m0,1084.03c77.03,0,139.47-62.44,139.47-139.47S77.03,805.1,0,805.1v278.94Z"/></g></g></svg>