<?xml version="1.0" encoding="UTF-8"?><svg id="Calque_2" xmlns="http://www.w3.org/2000/svg" viewBox="0 0 460.91 460.91"><g id="Calque_3"><g><path d="m441.55,137.87c-12.4-28.24-30.09-53.37-52.57-74.68C346,22.44,289.71,0,230.46,0S112.9,23.23,69.63,65.4C24.73,109.16,0,167.77,0,230.46s23.13,117.32,65.13,160.55c21.25,21.88,46.16,39.07,74.04,51.11,28.87,12.47,59.59,18.79,91.29,18.79,62.26,0,120.61-24.45,164.28-68.84,42.67-43.37,66.18-100.76,66.18-161.62,0-32.19-6.51-63.34-19.36-92.59Zm-68.6,233.57c-37.95,38.36-88.52,59.48-142.5,59.48s-105.73-21.59-143.81-60.81c-.03-.03-.06-.06-.09-.09l123.46-121.99-90.84,56.42L7.87,235.34l111.31-69.1,95.99,59.61L90.16,87.29c.14-.14.27-.27.41-.41,37.64-36.68,87.32-56.88,139.89-56.88s100.42,19.48,137.78,54.86l-141.34,146.33,104.63-64.96,111.28,69.1-111.28,69.1-100.01-62.09,141.44,129.08Z"/><polygon points="75.33 235.34 118.17 271.23 163 235.34 118.17 199.44 75.33 235.34"/><polygon points="377.34 235.34 332.51 199.44 289.67 235.34 332.51 271.23 377.34 235.34"/></g></g></svg>