<?xml version="1.0" encoding="UTF-8"?><svg id="Calque_2" xmlns="http://www.w3.org/2000/svg" viewBox="0 0 657.04 654.78"><g id="Calque_3"><g><polygon points="467.79 338.48 328.92 252.24 190.01 338.48 328.92 424.72 467.79 338.48"/><path d="m657.04,289.97l-119.31-14.07v-68.88l119.31-14.07-119.31-14.07v-49.23h-48.01L474.43,0l-15.29,129.65h-66.45L377.41,0l-15.29,129.65h-66.45L280.39,0l-15.29,129.65h-66.45L183.37,0l-15.29,129.65h-48.01v49.14L0,192.95l120.07,14.16v68.71L0,289.97l120.07,14.16v68.71L0,386.99l120.07,14.16v68.71L0,484.01l120.07,14.16v49.14h50.63l12.67,107.47,12.67-107.47h71.68l12.67,107.47,12.67-107.47h71.68l12.67,107.47,12.67-107.47h71.68l12.67,107.47,12.67-107.47h50.63v-49.23l119.31-14.07-119.31-14.07v-68.88l119.31-14.07-119.31-14.07v-68.89l119.31-14.07Zm-169.31,207.34H170.07V179.65h317.66v317.66Z"/></g></g></svg>