<?xml version="1.0" encoding="UTF-8"?><svg id="Calque_2" xmlns="http://www.w3.org/2000/svg" viewBox="0 0 526.45 527.02"><g id="Calque_3"><path d="m397.81,361.07l128.64-17.07-128.64-17.07v-46.35l128.64-17.07-128.64-17.07v-46.35l128.64-17.07-128.64-17.07v-36.74h-37.26L343.41,0l-17.14,129.21h-46.2L262.92,0l-17.14,129.21h-46.2L182.43,0l-17.14,129.21h-36.07v36.66L0,183.02l129.21,17.14v46.2L0,263.51l129.21,17.14v46.2L0,344l129.21,17.14v36.66h36.07l17.14,129.21,17.14-129.21h46.2l17.14,129.21,17.14-129.21h46.2l17.14,129.21,17.14-129.21h37.26v-36.74Zm-30,6.74h-208.6v-208.6h208.6v208.6Z"/></g></svg>