<?xml version="1.0" encoding="UTF-8"?><svg id="Calque_2" xmlns="http://www.w3.org/2000/svg" viewBox="0 0 811.6 479.55"><g id="Calque_3"><g><polygon points="405.69 80.63 612.8 209.25 405.69 337.86 198.53 209.25 405.69 80.63"/><g><polygon points="264.92 170.24 264.3 179.86 273.94 179.86 311.71 179.86 321.35 179.86 320.73 170.24 310.3 8.92 309.72 0 300.79 .48 178.51 7 178 7 273.62 35.62 264.92 170.24"/><polygon points="66.07 218.29 66.07 226.92 74.7 227.32 233.66 234.6 243.11 235.04 243.11 225.57 243.11 198.71 243.11 189.42 233.82 189.68 95.17 193.59 102.17 134.79 103.53 123.39 92.13 124.74 39.45 130.99 0 135.66 37.58 148.52 66.07 158.26 66.07 218.29"/><polygon points="310.31 355.94 310.31 346.9 310.31 255.23 310.31 246.19 301.27 246.19 273.52 246.19 263.36 246.19 264.54 256.28 272.98 328.38 70.46 319.79 59.47 319.32 61.14 330.19 70.71 392.56 78.64 444.3 88.52 392.9 95.62 355.94 301.27 355.94 310.31 355.94"/><polygon points="380.24 278.08 356.19 278.08 346.46 278.08 347.18 287.78 354.07 381.51 196.62 381.51 187.58 381.51 187.58 390.55 187.58 429.8 187.58 479.55 205.08 432.98 215.3 405.8 379.59 417.64 389.28 418.34 389.28 408.63 389.28 287.12 389.28 278.08 380.24 278.08"/></g><g><polygon points="546.68 170.24 547.3 179.86 537.66 179.86 499.89 179.86 490.25 179.86 490.87 170.24 501.31 8.92 501.88 0 510.81 .48 633.09 7 633.6 7 537.99 35.62 546.68 170.24"/><polygon points="745.53 218.29 745.53 226.92 736.9 227.32 577.94 234.6 568.49 235.04 568.49 225.57 568.49 198.71 568.49 189.42 577.78 189.68 716.43 193.59 709.43 134.79 708.08 123.39 719.47 124.74 772.16 130.99 811.6 135.66 774.02 148.52 745.53 158.26 745.53 218.29"/><polygon points="501.29 355.94 501.29 346.9 501.29 255.23 501.29 246.19 510.33 246.19 538.08 246.19 548.24 246.19 547.06 256.28 538.62 328.38 741.14 319.79 752.13 319.32 750.46 330.19 740.9 392.56 732.96 444.3 723.08 392.9 715.98 355.94 510.33 355.94 501.29 355.94"/><polygon points="431.37 278.08 455.41 278.08 465.14 278.08 464.43 287.78 457.53 381.51 614.98 381.51 624.02 381.51 624.02 390.55 624.02 429.8 624.02 479.55 606.52 432.98 596.31 405.8 432.02 417.64 422.33 418.34 422.33 408.63 422.33 287.12 422.33 278.08 431.37 278.08"/></g><polygon points="405.68 122.89 544.74 209.25 405.68 295.61 266.58 209.25 405.68 122.89" style="fill:#fff;"/><circle cx="404.84" cy="207.64" r="43.49"/></g></g></svg>