<?xml version="1.0" encoding="UTF-8"?><svg id="Calque_2" xmlns="http://www.w3.org/2000/svg" viewBox="0 0 353.58 308.24"><g id="Calque_3"><g><polygon points="31.16 98.12 0 152.09 140.52 99.59 141.37 98.12 31.16 98.12"/><polygon points="201.97 308.24 263.42 308.24 147.69 212.79 146.33 212.79 201.97 308.24"/><polygon points="153.13 0 90.16 0 205.88 95.45 207.83 95.45 153.13 0"/><polygon points="298.86 57.31 266.95 2.04 242.15 149.98 243.28 151.95 298.86 57.31"/><polygon points="54.61 250.75 86.63 306.21 111.43 158.26 110.25 156.22 54.61 250.75"/><polygon points="322.42 210.12 353.58 156.16 213.05 208.66 212.21 210.12 322.42 210.12"/></g></g></svg>