<?xml version="1.0" encoding="UTF-8"?><svg id="Calque_2" xmlns="http://www.w3.org/2000/svg" viewBox="0 0 396.62 352.72"><g id="Calque_3"><g><path d="m365.21,229.65l31.41-62.53-80.12,6.21-65.16-40.47,77.5-72.98L289.47,0l-59.51,119.59-31.95-19.84-14.66,9.1L161.75,5.13l-70.59,4.11,70.27,113.22-47.93,29.76-82.09-29.15L0,185.6l68.08-1.08,73.71,45.77-74.14,62.35,39.51,60.08,58-107.92,32.85,20.39,17.21-10.69,21.37,92.99,68.88-4.01-68.13-102.71,52.36-32.52,75.51,21.4Zm-166.82.57l-102.17-47.75,102.17-47.76,106.91,47.76-106.91,47.75Z"/><path d="m217.81,164.44c-2.1-2.26-4.61-4.16-7.41-5.55-3.57-1.81-7.61-2.83-11.88-2.83-1.79,0-3.55.18-5.24.52-3.09.62-5.98,1.78-8.58,3.38-5.08,3.12-9.02,7.91-11.05,13.62-1,2.78-1.54,5.77-1.54,8.89,0,.14,0,.27,0,.41.09,6.34,2.43,12.14,6.25,16.65,2.15,2.55,4.78,4.68,7.76,6.26,3.69,1.97,7.91,3.09,12.39,3.09,2.09,0,4.12-.24,6.06-.71,3.14-.73,6.06-2.02,8.65-3.76,5.14-3.46,9-8.67,10.71-14.79.65-2.27.99-4.67.99-7.15,0-.69-.03-1.37-.09-2.04-.46-6.16-3.05-11.73-7.03-15.99Z"/></g></g></svg>