<?xml version="1.0" encoding="UTF-8"?><svg id="Calque_2" xmlns="http://www.w3.org/2000/svg" viewBox="0 0 550.32 513.33"><g id="Calque_3"><g><polygon points="342.64 0 439.15 0 409.29 256.67 439.15 513.33 342.64 513.33 367.15 256.67 342.64 0"/><polygon points="453.81 0 550.32 0 520.46 256.67 550.32 513.33 453.81 513.33 478.33 256.67 453.81 0"/><polygon points="228.42 0 324.93 0 295.08 256.67 324.93 513.33 228.42 513.33 252.94 256.67 228.42 0"/><polygon points="114.21 0 210.72 0 180.87 256.67 210.72 513.33 114.21 513.33 138.73 256.67 114.21 0"/><polygon points="0 0 96.51 0 66.65 256.67 96.51 513.33 0 513.33 24.52 256.67 0 0"/></g></g></svg>