<?xml version="1.0" encoding="UTF-8"?><svg id="Calque_2" xmlns="http://www.w3.org/2000/svg" viewBox="0 0 642.57 646.85"><g id="Calque_3"><g><path d="m321.42,223.45l-154.58,95.97,154.58,95.97,154.54-95.97-154.54-95.97Zm-118.09,95.97l118.53-55.4,124.03,55.4-124.03,55.4-118.53-55.4Z"/><path d="m322.02,288.78c-16.92,0-30.64,13.72-30.64,30.64s13.72,30.64,30.64,30.64,30.64-13.72,30.64-30.64-13.72-30.64-30.64-30.64Z"/><polygon points="439.87 480.25 454.83 646.85 469.8 480.25 439.87 480.25"/><polygon points="354.45 480.25 369.42 646.85 384.38 480.25 354.45 480.25"/><polygon points="269.03 480.25 284 646.85 298.96 480.25 269.03 480.25"/><polygon points="183.61 480.25 198.58 646.85 213.54 480.25 183.61 480.25"/><polygon points="475.96 210.29 642.57 195.32 475.96 180.35 475.96 210.29"/><polygon points="475.96 295.71 642.57 280.74 475.96 265.77 475.96 295.71"/><polygon points="475.96 351.19 475.96 381.13 642.57 366.16 475.96 351.19"/><polygon points="475.96 436.61 475.96 466.54 642.57 451.58 475.96 436.61"/><polygon points="166.6 436.61 0 451.58 166.6 466.54 166.6 436.61"/><polygon points="166.6 351.19 0 366.16 166.6 381.13 166.6 351.19"/><polygon points="166.6 265.77 0 280.74 166.6 295.71 166.6 265.77"/><polygon points="166.6 180.35 0 195.32 166.6 210.29 166.6 180.35"/><polygon points="213.54 166.6 198.58 0 183.61 166.6 213.54 166.6"/><polygon points="298.96 166.6 284 0 269.03 166.6 298.96 166.6"/><polygon points="384.38 166.6 369.41 0 354.45 166.6 384.38 166.6"/><polygon points="469.8 166.6 454.83 0 439.87 166.6 469.8 166.6"/></g></g></svg>